# xmcd
#
# Track frame offsets: 
#        150
#        15962
#        26537
#        45152
#        57095
#        66802
#        86792
#        98990
#        106567
#        120487
#        139150
#        156402
#        177025
#        187157
#        203187
#        218885
#        232565
#
# Disc length: 3312 seconds
#
# Revision: 23
# Processed by: cddbd v1.5.2PL0 Copyright (c) Steve Scherf et al.
# Submitted via: ExactAudioCopyFreeDBPlugin 1.0
#
DISCID=d40cee11
DTITLE=Various Artist - I Am Sam
DYEAR=2001
DGENRE=Rock
TTITLE0=Aimee Mann and Michael Penn - Two of Us
TTITLE1=Sarah McLachlan - Blackbird
TTITLE2=Rufus Wainwright - Across The Universe
TTITLE3=The Wallflowers - I'm Looking Through You
TTITLE4=Eddie Vedder - You've Got To Hide Your Love Away
TTITLE5=Ben Harper - Strawberry Fields Forever
TTITLE6=Sheryl Crow - Mother Nature's Son
TTITLE7=Ben Folds - Golden Slumbers
TTITLE8=The Vines - I'm Only Sleeping
TTITLE9=Stereophonics - Don't Let Me Down
TTITLE10=The Black Crowes - Lucy In The Sky With Diamonds
TTITLE11=Chocolate Genius - Julia
TTITLE12=Heather Nova - We Can Work It Out
TTITLE13=Howie Day - Help!
TTITLE14=Paul Westerberg - Nowhere Man
TTITLE15=Grandaddy - Revolution
TTITLE16=Nick Cave - Let It Be
EXTD=Music from and Inspired by the Motion Picture
EXTT0=
EXTT1=
EXTT2=
EXTT3=
EXTT4=
EXTT5=
EXTT6=
EXTT7=
EXTT8=
EXTT9=
EXTT10=
EXTT11=
EXTT12=
EXTT13=
EXTT14=
EXTT15=
EXTT16=
PLAYORDER=
